<svg width="320" height="133" fill="none" xmlns="http://www.w3.org/2000/svg"><mask id="a" fill="#fff"><path d="M5 112h85v21H5v-21ZM109 0h15v133h-15V0ZM160 0h-23l51.5 133 11-31 29.696-72.988L258.5 105.5l.091-.244L268.5 133 320 0h-24l-27.341 76.555L241 0h-25l-26.979 74.941L160 0ZM96 48c0 26.51-21.49 48-48 48S0 74.51 0 48 21.49 0 48 0s48 21.49 48 48Z"/></mask><path d="M5 112V91h-21v21H5Zm85 0h21V91H90v21Zm0 21v21h21v-21H90Zm-85 0h-21v21H5v-21ZM109 0v-21H88V0h21Zm15 0h21v-21h-21V0Zm0 133v21h21v-21h-21Zm-15 0H88v21h21v-21ZM160 0l19.583-7.584L174.387-21H160V0Zm-23 0v-21h-30.651l11.068 28.583L137 0Zm51.5 133-19.583 7.583 20.442 52.793 18.932-53.353L188.5 133Zm11-31-19.452-7.914-.179.442-.16.45L199.5 102Zm29.696-72.988 19.61-7.513-19.023-49.653-20.039 49.252 19.452 7.914ZM258.5 105.5l-19.61 7.513 19.821 51.735 19.452-51.875L258.5 105.5Zm.091-.244 19.777-7.063-19.296-54.029-20.144 53.719 19.663 7.373ZM268.5 133l-19.777 7.063 18.982 53.148 20.378-52.628L268.5 133ZM320 0l19.583 7.583L350.651-21H320V0Zm-24 0v-21h-14.799l-4.978 13.937L296 0Zm-27.341 76.555-19.751 7.136 19.865 54.983 19.662-55.056-19.776-7.063ZM241 0l19.751-7.136L255.741-21H241V0Zm-25 0v-21h-14.759l-5 13.887L216 0Zm-26.979 74.941-19.583 7.584 20.301 52.421 19.041-52.892-19.759-7.113ZM5 133h85V91H5v42Zm64-21v21h42v-21H69Zm21 0H5v42h85v-42Zm-64 21v-21h-42v21h42Zm83-112h15v-42h-15v42Zm-6-21v133h42V0h-42Zm21 112h-15v42h15v-42Zm6 21V0H88v133h42Zm30-154h-23v42h23v-42ZM117.417 7.583l51.5 133 39.166-15.166-51.5-133-39.166 15.166Zm90.874 132.44 11-31-39.582-14.046-11 31 39.582 14.046Zm10.661-30.109 29.696-72.988-38.904-15.828-29.696 72.988 38.904 15.828Zm-9.366-73.39 29.304 76.489 39.22-15.026-29.304-76.488-39.22 15.026Zm68.577 76.349.091-.244-39.326-14.746-.091.244 39.326 14.746Zm-39.348-.554 9.908 27.744 39.554-14.126-9.909-27.744-39.553 14.126Zm49.268 28.264 51.5-133-39.166-15.166-51.5 133 39.166 15.166ZM320-21h-24v42h24v-42ZM276.223-7.063l-27.341 76.555 39.553 14.126 27.342-76.555-39.554-14.126Zm12.186 76.483L260.751-7.136 221.249 7.136l27.659 76.555 39.501-14.271ZM241-21h-25v42h25v-42ZM196.241-7.113l-26.978 74.94 39.517 14.227 26.979-74.94-39.518-14.227Zm12.363 74.47-29.021-74.94-39.166 15.167 29.021 74.94 39.166-15.167ZM75 48c0 14.912-12.088 27-27 27v42c38.108 0 69-30.892 69-69H75ZM48 75c-14.912 0-27-12.088-27-27h-42c0 38.108 30.892 69 69 69V75ZM21 48c0-14.912 12.088-27 27-27v-42C9.892-21-21 9.892-21 48h42Zm27-27c14.912 0 27 12.088 27 27h42c0-38.108-30.892-69-69-69v42Z" fill="#fff" mask="url(#a)"/></svg>